<?xml version="1.0" encoding="utf-8"?>
<!-- Generator: Adobe Illustrator 23.0.3, SVG Export Plug-In . SVG Version: 6.00 Build 0)  -->
<svg version="1.1" id="Layer_1" xmlns="http://www.w3.org/2000/svg" xmlns:xlink="http://www.w3.org/1999/xlink" x="0px" y="0px"
	 viewBox="0 0 180.7 180.7" style="enable-background:new 0 0 180.7 180.7;" xml:space="preserve">
<style type="text/css">
	.st0{fill:#CADBFE;}
	.st1{fill:#3B3638;}
	.st2{fill:#E60201;}
	.st3{fill:#7C0405;}
	.st4{fill:#433F26;}
	.st5{fill:#2A0034;}
	.st6{fill:#1F2600;}
	.st7{fill:#000F34;}
	.st8{fill:#261600;}
	.st9{fill:#262600;}
	.st10{fill:#002625;}
	.st11{fill:#253930;}
	.st12{fill:#051E1E;}
	.st13{fill:#2E001E;}
	.st14{fill:#230904;}
	.st15{fill:#00261A;}
	.st16{fill:#002026;}
	.st17{fill:#001D26;}
	.st18{fill:#1F0040;}
	.st19{fill:#3C1B2B;}
	.st20{fill:#260600;}
	.st21{fill:#002620;}
	.st22{fill:#28333B;}
	.st23{fill:#261300;}
	.st24{fill:#261C00;}
	.st25{fill:#3C2346;}
	.st26{fill:#072600;}
	.st27{fill:#19273C;}
	.st28{fill:#FF7C00;}
	.st29{fill:#FBB500;}
	.st30{fill:#D996FB;}
	.st31{fill:#83EC09;}
	.st32{fill:#7CB1FF;}
	.st33{fill:#D291FF;}
	.st34{fill:#FF408C;}
	.st35{fill:#FF4A19;}
	.st36{fill:#FFFFFF;}
	.st37{fill:#AED3E9;}
	.st38{fill:#3CF2A6;}
	.st39{fill:#00DBFF;}
	.st40{fill:#00C8FF;}
	.st41{fill:#DCDCDC;}
	.st42{fill:#E272F7;}
	.st43{fill:#00EAE4;}
	.st44{fill:#00E778;}
	.st45{fill:#FF2BC2;}
	.st46{fill:#FFE3B4;}
	.st47{fill:#E5ED00;}
	.st48{fill:#C1E800;}
	.st49{fill:#FF9100;}
	.st50{fill:#FCF400;}
	.st51{fill:#1969FF;}
	.st52{fill:#152600;}
	.st53{fill:#2B0028;}
	.st54{fill:#87EC00;}
	.st55{fill:#FF5FF8;}
	.st56{fill:#B3A3A8;}
	.st57{fill:#FEFEFE;}
	.st58{fill:#00E4BB;}
</style>
<path class="st26" d="M154.1,180.7H26.6C11.9,180.7,0,168.8,0,154.1V26.6C0,11.9,11.9,0,26.6,0h127.6c14.7,0,26.6,11.9,26.6,26.6
	v127.6C180.7,168.8,168.8,180.7,154.1,180.7z"/>
<g>
	<g>
		<path class="st31" d="M28.2,128.5V57.4h20.1c6.2,0,11.7,1.4,16.4,4.1c4.8,2.7,8.4,6.6,11,11.7c2.6,5,3.9,10.8,3.9,17.4v4.5
			c0,6.7-1.3,12.6-3.9,17.6c-2.6,5-6.3,8.9-11.1,11.6c-4.8,2.7-10.4,4.1-16.8,4.2H28.2z M37.6,65.1v55.8h9.9
			c7.2,0,12.8-2.2,16.9-6.7c4-4.5,6-10.9,6-19.2v-4.2c0-8.1-1.9-14.4-5.7-18.8c-3.8-4.5-9.2-6.8-16.1-6.8H37.6z"/>
		<path class="st31" d="M139.2,116.1l10.2-40.4h9L143,128.5h-7.3l-12.8-40l-12.5,40H103L87.7,75.7h9l10.4,39.6l12.3-39.6h7.3
			L139.2,116.1z"/>
	</g>
</g>
</svg>
